<mxfile host="Electron" modified="2023-12-20T10:07:04.714Z" agent="Mozilla/5.0 (Macintosh; Intel Mac OS X 10_15_7) AppleWebKit/537.36 (KHTML, like Gecko) draw.io/22.1.11 Chrome/114.0.5735.289 Electron/25.9.8 Safari/537.36" etag="9C_pQyMvPfuB8eNygzSc" version="22.1.11" type="device">
  <diagram name="Side-1" id="xwd5v3zJP46BIuslZfk_">
    <mxGraphModel dx="1857" dy="68" grid="1" gridSize="10" guides="1" tooltips="1" connect="1" arrows="1" fold="1" page="1" pageScale="1" pageWidth="827" pageHeight="1169" math="0" shadow="0">
      <root>
        <mxCell id="0" />
        <mxCell id="1" parent="0" />
        <mxCell id="Pcca7bbmnIBx_QJakim2-1" value="" style="ellipse;whiteSpace=wrap;html=1;aspect=fixed;fillColor=#76608a;strokeColor=#432D57;fontColor=#ffffff;" vertex="1" parent="1">
          <mxGeometry x="10" y="1310" width="810" height="810" as="geometry" />
        </mxCell>
        <mxCell id="Pcca7bbmnIBx_QJakim2-2" value="" style="ellipse;whiteSpace=wrap;html=1;aspect=fixed;fillColor=#647687;strokeColor=#314354;fontColor=#ffffff;" vertex="1" parent="1">
          <mxGeometry x="128" y="1420" width="574" height="574" as="geometry" />
        </mxCell>
        <mxCell id="Pcca7bbmnIBx_QJakim2-3" value="" style="ellipse;whiteSpace=wrap;html=1;aspect=fixed;fillColor=#a0522d;strokeColor=#6D1F00;fontColor=#ffffff;" vertex="1" parent="1">
          <mxGeometry x="260" y="1540" width="310" height="310" as="geometry" />
        </mxCell>
        <mxCell id="Pcca7bbmnIBx_QJakim2-4" value="&lt;b&gt;CORE&lt;/b&gt;" style="text;html=1;strokeColor=none;fillColor=none;align=center;verticalAlign=middle;whiteSpace=wrap;rounded=0;" vertex="1" parent="1">
          <mxGeometry x="390" y="1570" width="60" height="30" as="geometry" />
        </mxCell>
        <mxCell id="Pcca7bbmnIBx_QJakim2-5" value="«interface»&lt;br&gt;&lt;b&gt;IAuthorRepository&lt;/b&gt;" style="html=1;whiteSpace=wrap;" vertex="1" parent="1">
          <mxGeometry x="430" y="1614" width="110" height="50" as="geometry" />
        </mxCell>
        <mxCell id="Pcca7bbmnIBx_QJakim2-6" value="«interface»&lt;br&gt;&lt;b&gt;ILikeRepository&lt;/b&gt;" style="html=1;whiteSpace=wrap;" vertex="1" parent="1">
          <mxGeometry x="360" y="1770" width="110" height="50" as="geometry" />
        </mxCell>
        <mxCell id="Pcca7bbmnIBx_QJakim2-7" value="«record»&lt;br&gt;&lt;b&gt;CheepDTO&lt;/b&gt;" style="html=1;whiteSpace=wrap;" vertex="1" parent="1">
          <mxGeometry x="270" y="1675" width="75" height="40" as="geometry" />
        </mxCell>
        <mxCell id="Pcca7bbmnIBx_QJakim2-8" value="«record»&lt;br&gt;&lt;b&gt;AuthorDTO&lt;/b&gt;" style="html=1;whiteSpace=wrap;" vertex="1" parent="1">
          <mxGeometry x="292.5" y="1600" width="80" height="40" as="geometry" />
        </mxCell>
        <mxCell id="Pcca7bbmnIBx_QJakim2-9" value="&lt;b&gt;INFRASTRUCTURE&lt;/b&gt;" style="text;html=1;strokeColor=none;fillColor=none;align=center;verticalAlign=middle;whiteSpace=wrap;rounded=0;" vertex="1" parent="1">
          <mxGeometry x="390" y="1450" width="60" height="30" as="geometry" />
        </mxCell>
        <mxCell id="Pcca7bbmnIBx_QJakim2-10" value="AuthorRepository" style="html=1;whiteSpace=wrap;" vertex="1" parent="1">
          <mxGeometry x="580" y="1664" width="110" height="50" as="geometry" />
        </mxCell>
        <mxCell id="Pcca7bbmnIBx_QJakim2-11" value="CheepRepository" style="html=1;whiteSpace=wrap;" vertex="1" parent="1">
          <mxGeometry x="175" y="1810" width="110" height="50" as="geometry" />
        </mxCell>
        <mxCell id="Pcca7bbmnIBx_QJakim2-12" value="LikeRepository" style="html=1;whiteSpace=wrap;" vertex="1" parent="1">
          <mxGeometry x="370" y="1920" width="110" height="50" as="geometry" />
        </mxCell>
        <mxCell id="Pcca7bbmnIBx_QJakim2-13" value="Author" style="html=1;whiteSpace=wrap;" vertex="1" parent="1">
          <mxGeometry x="500" y="1510" width="90" height="50" as="geometry" />
        </mxCell>
        <mxCell id="Pcca7bbmnIBx_QJakim2-14" value="Cheep" style="html=1;whiteSpace=wrap;" vertex="1" parent="1">
          <mxGeometry x="150" y="1682" width="80" height="50" as="geometry" />
        </mxCell>
        <mxCell id="Pcca7bbmnIBx_QJakim2-15" value="Like" style="html=1;whiteSpace=wrap;" vertex="1" parent="1">
          <mxGeometry x="179" y="1580" width="81" height="50" as="geometry" />
        </mxCell>
        <mxCell id="Pcca7bbmnIBx_QJakim2-16" value="ChirpContext" style="html=1;whiteSpace=wrap;" vertex="1" parent="1">
          <mxGeometry x="270" y="1480" width="110" height="50" as="geometry" />
        </mxCell>
        <mxCell id="Pcca7bbmnIBx_QJakim2-17" value="Program" style="rounded=0;whiteSpace=wrap;html=1;" vertex="1" parent="1">
          <mxGeometry x="130" y="1428" width="80" height="42" as="geometry" />
        </mxCell>
        <mxCell id="Pcca7bbmnIBx_QJakim2-18" value="DBInitializer" style="rounded=0;whiteSpace=wrap;html=1;" vertex="1" parent="1">
          <mxGeometry x="590" y="1420" width="100" height="50" as="geometry" />
        </mxCell>
        <mxCell id="Pcca7bbmnIBx_QJakim2-19" value="&lt;b&gt;WEB&lt;/b&gt;" style="text;html=1;strokeColor=none;fillColor=none;align=center;verticalAlign=middle;whiteSpace=wrap;rounded=0;" vertex="1" parent="1">
          <mxGeometry x="385" y="1350" width="60" height="30" as="geometry" />
        </mxCell>
        <mxCell id="Pcca7bbmnIBx_QJakim2-20" value="&lt;meta charset=&quot;utf-8&quot;&gt;&lt;span style=&quot;color: rgb(240, 240, 240); font-family: Helvetica; font-size: 11px; font-style: normal; font-variant-ligatures: normal; font-variant-caps: normal; font-weight: 400; letter-spacing: normal; orphans: 2; text-align: center; text-indent: 0px; text-transform: none; widows: 2; word-spacing: 0px; -webkit-text-stroke-width: 0px; background-color: rgb(24, 20, 29); text-decoration-thickness: initial; text-decoration-style: initial; text-decoration-color: initial; float: none; display: inline !important;&quot;&gt;Implements&lt;/span&gt;" style="endArrow=block;endFill=0;endSize=12;html=1;rounded=0;entryX=1;entryY=0.25;entryDx=0;entryDy=0;exitX=0.5;exitY=0;exitDx=0;exitDy=0;dashed=1;" edge="1" parent="1" source="Pcca7bbmnIBx_QJakim2-10" target="Pcca7bbmnIBx_QJakim2-5">
          <mxGeometry width="160" relative="1" as="geometry">
            <mxPoint x="170" y="1846" as="sourcePoint" />
            <mxPoint x="170" y="1680" as="targetPoint" />
          </mxGeometry>
        </mxCell>
        <mxCell id="Pcca7bbmnIBx_QJakim2-21" value="Use" style="endArrow=open;endSize=12;dashed=1;html=1;rounded=0;exitX=0;exitY=0.5;exitDx=0;exitDy=0;entryX=1;entryY=0.5;entryDx=0;entryDy=0;" edge="1" parent="1" source="Pcca7bbmnIBx_QJakim2-5" target="Pcca7bbmnIBx_QJakim2-8">
          <mxGeometry width="160" relative="1" as="geometry">
            <mxPoint x="420" y="1770" as="sourcePoint" />
            <mxPoint x="580" y="1770" as="targetPoint" />
          </mxGeometry>
        </mxCell>
        <mxCell id="Pcca7bbmnIBx_QJakim2-22" value="Implements" style="endArrow=block;endFill=0;endSize=12;html=1;rounded=0;entryX=0.5;entryY=1;entryDx=0;entryDy=0;exitX=0.5;exitY=0;exitDx=0;exitDy=0;dashed=1;" edge="1" parent="1" source="Pcca7bbmnIBx_QJakim2-12" target="Pcca7bbmnIBx_QJakim2-6">
          <mxGeometry width="160" relative="1" as="geometry">
            <mxPoint x="275" y="1900" as="sourcePoint" />
            <mxPoint x="430" y="1840" as="targetPoint" />
          </mxGeometry>
        </mxCell>
        <mxCell id="Pcca7bbmnIBx_QJakim2-23" value="&lt;meta charset=&quot;utf-8&quot;&gt;&lt;span style=&quot;color: rgb(240, 240, 240); font-family: Helvetica; font-size: 11px; font-style: normal; font-variant-ligatures: normal; font-variant-caps: normal; font-weight: 400; letter-spacing: normal; orphans: 2; text-align: center; text-indent: 0px; text-transform: none; widows: 2; word-spacing: 0px; -webkit-text-stroke-width: 0px; background-color: rgb(24, 20, 29); text-decoration-thickness: initial; text-decoration-style: initial; text-decoration-color: initial; float: none; display: inline !important;&quot;&gt;Implements&lt;/span&gt;" style="endArrow=block;endFill=0;endSize=12;html=1;rounded=0;entryX=0;entryY=0.75;entryDx=0;entryDy=0;exitX=0.5;exitY=0;exitDx=0;exitDy=0;dashed=1;" edge="1" parent="1" source="Pcca7bbmnIBx_QJakim2-11" target="Pcca7bbmnIBx_QJakim2-31">
          <mxGeometry width="160" relative="1" as="geometry">
            <mxPoint x="545" y="1850" as="sourcePoint" />
            <mxPoint x="435" y="1830" as="targetPoint" />
          </mxGeometry>
        </mxCell>
        <mxCell id="Pcca7bbmnIBx_QJakim2-24" value="Use" style="endArrow=open;endSize=12;dashed=1;html=1;rounded=0;entryX=0.5;entryY=1;entryDx=0;entryDy=0;" edge="1" parent="1" source="Pcca7bbmnIBx_QJakim2-31" target="Pcca7bbmnIBx_QJakim2-7">
          <mxGeometry width="160" relative="1" as="geometry">
            <mxPoint x="419" y="1715" as="sourcePoint" />
            <mxPoint x="500" y="1724" as="targetPoint" />
          </mxGeometry>
        </mxCell>
        <mxCell id="Pcca7bbmnIBx_QJakim2-25" value="RazorPages" style="rounded=0;whiteSpace=wrap;html=1;" vertex="1" parent="1">
          <mxGeometry x="660" y="1870" width="100" height="50" as="geometry" />
        </mxCell>
        <mxCell id="Pcca7bbmnIBx_QJakim2-26" value="Use" style="endArrow=open;endSize=12;dashed=1;html=1;rounded=0;exitX=0;exitY=0.5;exitDx=0;exitDy=0;entryX=1;entryY=0.5;entryDx=0;entryDy=0;" edge="1" parent="1" source="Pcca7bbmnIBx_QJakim2-25" target="Pcca7bbmnIBx_QJakim2-6">
          <mxGeometry width="160" relative="1" as="geometry">
            <mxPoint x="429" y="1725" as="sourcePoint" />
            <mxPoint x="480" y="1720" as="targetPoint" />
          </mxGeometry>
        </mxCell>
        <mxCell id="Pcca7bbmnIBx_QJakim2-27" value="Use" style="endArrow=open;endSize=12;dashed=1;html=1;rounded=0;exitX=0;exitY=0.5;exitDx=0;exitDy=0;entryX=0.5;entryY=1;entryDx=0;entryDy=0;" edge="1" parent="1" source="Pcca7bbmnIBx_QJakim2-25" target="Pcca7bbmnIBx_QJakim2-5">
          <mxGeometry width="160" relative="1" as="geometry">
            <mxPoint x="670" y="1895" as="sourcePoint" />
            <mxPoint x="500" y="1805" as="targetPoint" />
          </mxGeometry>
        </mxCell>
        <mxCell id="Pcca7bbmnIBx_QJakim2-28" value="Use" style="endArrow=open;endSize=12;dashed=1;html=1;rounded=0;exitX=0;exitY=0.5;exitDx=0;exitDy=0;entryX=1;entryY=0.5;entryDx=0;entryDy=0;" edge="1" parent="1" source="Pcca7bbmnIBx_QJakim2-25" target="Pcca7bbmnIBx_QJakim2-31">
          <mxGeometry width="160" relative="1" as="geometry">
            <mxPoint x="670" y="1895" as="sourcePoint" />
            <mxPoint x="385" y="1680" as="targetPoint" />
          </mxGeometry>
        </mxCell>
        <mxCell id="Pcca7bbmnIBx_QJakim2-29" style="edgeStyle=orthogonalEdgeStyle;rounded=0;orthogonalLoop=1;jettySize=auto;html=1;exitX=0.5;exitY=1;exitDx=0;exitDy=0;" edge="1" parent="1" source="Pcca7bbmnIBx_QJakim2-11" target="Pcca7bbmnIBx_QJakim2-11">
          <mxGeometry relative="1" as="geometry" />
        </mxCell>
        <mxCell id="Pcca7bbmnIBx_QJakim2-30" value="" style="endArrow=open;endSize=12;dashed=1;html=1;rounded=0;entryX=0.5;entryY=1;entryDx=0;entryDy=0;" edge="1" parent="1" target="Pcca7bbmnIBx_QJakim2-31">
          <mxGeometry width="160" relative="1" as="geometry">
            <mxPoint x="419" y="1715" as="sourcePoint" />
            <mxPoint x="333" y="1709" as="targetPoint" />
          </mxGeometry>
        </mxCell>
        <mxCell id="Pcca7bbmnIBx_QJakim2-31" value="«interface»&lt;br&gt;&lt;b&gt;ICheepRepository&lt;/b&gt;" style="html=1;whiteSpace=wrap;" vertex="1" parent="1">
          <mxGeometry x="390" y="1699" width="110" height="50" as="geometry" />
        </mxCell>
        <mxCell id="Pcca7bbmnIBx_QJakim2-32" value="Use" style="endArrow=open;endSize=12;dashed=1;html=1;rounded=0;entryX=0;entryY=0.5;entryDx=0;entryDy=0;exitX=0.5;exitY=1;exitDx=0;exitDy=0;" edge="1" parent="1" source="Pcca7bbmnIBx_QJakim2-17" target="Pcca7bbmnIBx_QJakim2-16">
          <mxGeometry width="160" relative="1" as="geometry">
            <mxPoint x="440" y="1649" as="sourcePoint" />
            <mxPoint x="383" y="1630" as="targetPoint" />
          </mxGeometry>
        </mxCell>
      </root>
    </mxGraphModel>
  </diagram>
</mxfile>
